<svg height="512" viewBox="0 0 128 128" width="512" xmlns="http://www.w3.org/2000/svg" xmlns:xlink="http://www.w3.org/1999/xlink"><linearGradient id="a" gradientUnits="userSpaceOnUse" x1="114.114" x2="32.006" y1="112.635" y2="30.527"><stop offset="0" stop-color="#7b49ad"/><stop offset="1" stop-color="#6aa8fb"/></linearGradient><path d="m122.375 79.125-18.293-10.562v-21.163-.02-.021-3.421a1.75 1.75 0 1 0 -3.5 0v2.411l-6.782 3.917-8.882 5.128v-18.094l15.665-9.046v2.159a1.75 1.75 0 0 0 3.5 0v-5.19c0-.015 0-.028-.006-.042a1.744 1.744 0 0 0 -.211-.793c-.018-.032-.038-.062-.058-.093a1.776 1.776 0 0 0 -.192-.251c-.024-.027-.047-.055-.074-.08a1.727 1.727 0 0 0 -.333-.257l-19.169-11.062a1.748 1.748 0 0 0 -1.75 0l-19.168 11.066a1.751 1.751 0 0 0 -.875 1.516v22.132.025.016 19.139l-16.539-9.539-8.408-4.864a1.75 1.75 0 0 0 -1.751 3.031l5.787 3.342-15.672 9.044-15.664-9.044 15.67-9.048 3.282 1.9a1.75 1.75 0 1 0 1.748-3.035l-4.158-2.4a1.748 1.748 0 0 0 -1.75 0l-19.156 11.062h-.011a1.756 1.756 0 0 0 -.875 1.522v22.13a1.755 1.755 0 0 0 .875 1.516l12.252 7.075 6.918 4 7.251 4.185 11.912 6.878h.006l4.308 2.487a1.75 1.75 0 1 0 1.75-3.031l-3.438-1.985v-18.093l15.666 9.046v18.091l-5.362-3.1a1.75 1.75 0 0 0 -1.75 3.031l7.987 4.611a1.746 1.746 0 0 0 1.75 0l18.292-10.551 18.291 10.56a1.738 1.738 0 0 0 .875.235 1.738 1.738 0 0 0 .875-.235l15.333-8.853 3.833-2.213a1.749 1.749 0 0 0 .875-1.516v-22.137a1.75 1.75 0 0 0 -.874-1.516zm-94.955 11.575v-18.093l15.663 9.044v18.089l-9.074-5.24zm17.415-12.079-15.669-9.048 15.664-9.043 15.67 9.043zm36.582-23.221-15.669-9.051v-18.091l15.669 9.048zm3.5 4.083 15.663-9.045v18.082l-15.663 9.045zm0 24.2 15.666 9.046v18.089l-15.666-9.045zm-19.167-15.162v-18.088l15.667 9.046v18.089l-8.487-4.9zm38.334 42.287v-18.09l15.666-9.046v18.091l-4.03 2.326zm-1.752-21.12-15.667-9.047 15.668-9.041 15.667 9.041zm-19.167-73.507 15.667 9.046-15.667 9.046-15.665-9.046zm-59.249 72.5-15.666-9.051v-18.091l15.666 9.046zm24.419-8.035 15.7-9.066 8.127 4.692 7.538 4.35-15.7 9.066zm17.415 12.074 15.665-9.046v18.091l-15.665 9.044zm38.332-56.928v2.677a1.75 1.75 0 0 1 -3.5 0v-2.677a1.75 1.75 0 0 1 3.5 0z" fill="url(#a)"/></svg>